<svg width="183" height="40" viewBox="0 0 183 40" fill="none" xmlns="http://www.w3.org/2000/svg">
<path d="M11.6667 20L20 11.6667L28.3333 20L20 28.3333L11.6667 20Z" fill="#1A1A1A"/>
<path d="M36.6667 10V20L20 3.33334H30L36.6667 10Z" fill="#1A1A1A"/>
<path d="M36.6667 30V20L20 36.6667H30L36.6667 30Z" fill="#1A1A1A"/>
<path d="M3.33334 30V20L20 36.6667H10L3.33334 30Z" fill="#1A1A1A"/>
<path d="M3.33334 10V20L20 3.33334H10L3.33334 10Z" fill="#1A1A1A"/>
<path d="M46.6466 27.5V12.3334H49.1383V27.5H46.6466ZM48.3583 27.5V25.225H56.2883V27.5H48.3583Z" fill="#262626"/>
<path d="M58.2557 27.5V17.1H60.6391V27.5H58.2557ZM59.4474 15.1934C59.0429 15.1934 58.7035 15.0561 58.4291 14.7817C58.1691 14.5072 58.0391 14.1678 58.0391 13.7634C58.0391 13.3589 58.1691 13.0195 58.4291 12.745C58.7035 12.4706 59.0429 12.3334 59.4474 12.3334C59.8663 12.3334 60.2057 12.4706 60.4657 12.745C60.7257 13.0195 60.8557 13.3589 60.8557 13.7634C60.8557 14.1678 60.7257 14.5072 60.4657 14.7817C60.2057 15.0561 59.8663 15.1934 59.4474 15.1934Z" fill="#262626"/>
<path d="M64.8938 27.5V12.7667H67.2772V27.5H64.8938ZM62.4022 19.2667V17.1H76.0522V19.2667H62.4022ZM71.1772 27.5V12.7667H73.5605V27.5H71.1772Z" fill="#262626"/>
<path d="M77.7848 27.5V11.9H80.1682V27.5H77.7848Z" fill="#262626"/>
<path d="M87.6523 27.7167C86.6123 27.7167 85.6734 27.4856 84.8356 27.0234C84.0123 26.5467 83.3551 25.8967 82.864 25.0734C82.3873 24.25 82.149 23.3256 82.149 22.3C82.149 21.2745 82.3873 20.3572 82.864 19.5484C83.3406 18.725 83.9834 18.075 84.7923 17.5984C85.6156 17.1217 86.5256 16.8834 87.5223 16.8834C88.4901 16.8834 89.3423 17.1072 90.079 17.555C90.8301 18.0028 91.4151 18.6167 91.834 19.3967C92.2673 20.1767 92.484 21.065 92.484 22.0617C92.484 22.235 92.4695 22.4156 92.4406 22.6034C92.4262 22.7767 92.3973 22.9717 92.354 23.1884H83.8173V21.2384H91.119L90.2306 22.0184C90.2018 21.3828 90.079 20.8484 89.8623 20.415C89.6456 19.9817 89.3351 19.6495 88.9306 19.4184C88.5406 19.1872 88.0568 19.0717 87.479 19.0717C86.8723 19.0717 86.3451 19.2017 85.8973 19.4617C85.4495 19.7217 85.1029 20.09 84.8573 20.5667C84.6118 21.0289 84.489 21.585 84.489 22.235C84.489 22.885 84.619 23.4556 84.879 23.9467C85.139 24.4378 85.5073 24.8206 85.984 25.095C86.4606 25.355 87.0095 25.485 87.6306 25.485C88.1651 25.485 88.6562 25.3911 89.104 25.2034C89.5662 25.0156 89.9562 24.7411 90.274 24.38L91.7906 25.9184C91.2851 26.5106 90.6712 26.9584 89.949 27.2617C89.2268 27.565 88.4612 27.7167 87.6523 27.7167Z" fill="#262626"/>
<path d="M99.0571 27.5V12.3334H101.549V27.5H99.0571ZM100.769 27.5V25.225H108.699V27.5H100.769Z" fill="#262626"/>
<path d="M115.117 27.7167C114.077 27.7167 113.138 27.4856 112.3 27.0234C111.477 26.5467 110.819 25.8967 110.328 25.0734C109.852 24.25 109.613 23.3256 109.613 22.3C109.613 21.2745 109.852 20.3572 110.328 19.5484C110.805 18.725 111.448 18.075 112.257 17.5984C113.08 17.1217 113.99 16.8834 114.987 16.8834C115.954 16.8834 116.807 17.1072 117.543 17.555C118.294 18.0028 118.879 18.6167 119.298 19.3967C119.732 20.1767 119.948 21.065 119.948 22.0617C119.948 22.235 119.934 22.4156 119.905 22.6034C119.89 22.7767 119.862 22.9717 119.818 23.1884H111.282V21.2384H118.583L117.695 22.0184C117.666 21.3828 117.543 20.8484 117.327 20.415C117.11 19.9817 116.799 19.6495 116.395 19.4184C116.005 19.1872 115.521 19.0717 114.943 19.0717C114.337 19.0717 113.809 19.2017 113.362 19.4617C112.914 19.7217 112.567 20.09 112.322 20.5667C112.076 21.0289 111.953 21.585 111.953 22.235C111.953 22.885 112.083 23.4556 112.343 23.9467C112.603 24.4378 112.972 24.8206 113.448 25.095C113.925 25.355 114.474 25.485 115.095 25.485C115.629 25.485 116.12 25.3911 116.568 25.2034C117.03 25.0156 117.42 24.7411 117.738 24.38L119.255 25.9184C118.749 26.5106 118.135 26.9584 117.413 27.2617C116.691 27.565 115.925 27.7167 115.117 27.7167Z" fill="#262626"/>
<path d="M126.214 27.7167C125.275 27.7167 124.423 27.4784 123.657 27.0017C122.906 26.525 122.307 25.8822 121.859 25.0734C121.425 24.25 121.209 23.3328 121.209 22.3217C121.209 21.2961 121.425 20.3789 121.859 19.57C122.307 18.7467 122.906 18.0967 123.657 17.62C124.423 17.1289 125.275 16.8834 126.214 16.8834C127.008 16.8834 127.709 17.0567 128.315 17.4034C128.937 17.7356 129.428 18.1978 129.789 18.79C130.15 19.3822 130.33 20.0539 130.33 20.805V23.795C130.33 24.5461 130.15 25.2178 129.789 25.81C129.442 26.4022 128.958 26.8717 128.337 27.2184C127.716 27.5506 127.008 27.7167 126.214 27.7167ZM126.604 25.4634C127.485 25.4634 128.193 25.1672 128.727 24.575C129.276 23.9828 129.55 23.2245 129.55 22.3C129.55 21.6789 129.428 21.13 129.182 20.6534C128.937 20.1767 128.59 19.8084 128.142 19.5484C127.709 19.2739 127.196 19.1367 126.604 19.1367C126.026 19.1367 125.513 19.2739 125.065 19.5484C124.632 19.8084 124.285 20.1767 124.025 20.6534C123.78 21.13 123.657 21.6789 123.657 22.3C123.657 22.9211 123.78 23.47 124.025 23.9467C124.285 24.4234 124.632 24.7989 125.065 25.0734C125.513 25.3334 126.026 25.4634 126.604 25.4634ZM129.399 27.5V24.705L129.81 22.17L129.399 19.6567V17.1H131.782V27.5H129.399Z" fill="#262626"/>
<path d="M134.427 27.5V17.1H136.81V27.5H134.427ZM136.81 21.715L135.987 21.3034C135.987 19.9889 136.276 18.9272 136.854 18.1184C137.446 17.295 138.334 16.8834 139.519 16.8834C140.039 16.8834 140.508 16.9772 140.927 17.165C141.346 17.3528 141.736 17.6561 142.097 18.075L140.537 19.6784C140.349 19.4761 140.14 19.3317 139.909 19.245C139.678 19.1584 139.41 19.115 139.107 19.115C138.443 19.115 137.894 19.3245 137.46 19.7434C137.027 20.1622 136.81 20.8195 136.81 21.715Z" fill="#262626"/>
<path d="M150.379 27.5V21.4984C150.379 20.805 150.155 20.2345 149.707 19.7867C149.274 19.3389 148.71 19.115 148.017 19.115C147.555 19.115 147.143 19.2161 146.782 19.4184C146.421 19.6206 146.139 19.9022 145.937 20.2634C145.735 20.6245 145.634 21.0361 145.634 21.4984L144.702 20.9784C144.702 20.1839 144.875 19.4834 145.222 18.8767C145.569 18.2556 146.045 17.7717 146.652 17.425C147.273 17.0639 147.966 16.8834 148.732 16.8834C149.512 16.8834 150.205 17.0856 150.812 17.49C151.419 17.88 151.895 18.3928 152.242 19.0284C152.589 19.6495 152.762 20.2995 152.762 20.9784V27.5H150.379ZM143.25 27.5V17.1H145.634V27.5H143.25Z" fill="#262626"/>
<path d="M160.016 27.7167C158.976 27.7167 158.037 27.4856 157.199 27.0234C156.376 26.5467 155.718 25.8967 155.227 25.0734C154.751 24.25 154.512 23.3256 154.512 22.3C154.512 21.2745 154.751 20.3572 155.227 19.5484C155.704 18.725 156.347 18.075 157.156 17.5984C157.979 17.1217 158.889 16.8834 159.886 16.8834C160.853 16.8834 161.706 17.1072 162.442 17.555C163.193 18.0028 163.778 18.6167 164.197 19.3967C164.631 20.1767 164.847 21.065 164.847 22.0617C164.847 22.235 164.833 22.4156 164.804 22.6034C164.789 22.7767 164.761 22.9717 164.717 23.1884H156.181V21.2384H163.482L162.594 22.0184C162.565 21.3828 162.442 20.8484 162.226 20.415C162.009 19.9817 161.698 19.6495 161.294 19.4184C160.904 19.1872 160.42 19.0717 159.842 19.0717C159.236 19.0717 158.708 19.2017 158.261 19.4617C157.813 19.7217 157.466 20.09 157.221 20.5667C156.975 21.0289 156.852 21.585 156.852 22.235C156.852 22.885 156.982 23.4556 157.242 23.9467C157.502 24.4378 157.871 24.8206 158.347 25.095C158.824 25.355 159.373 25.485 159.994 25.485C160.528 25.485 161.019 25.3911 161.467 25.2034C161.929 25.0156 162.319 24.7411 162.637 24.38L164.154 25.9184C163.648 26.5106 163.034 26.9584 162.312 27.2617C161.59 27.565 160.824 27.7167 160.016 27.7167Z" fill="#262626"/>
<path d="M166.758 27.5V17.1H169.141V27.5H166.758ZM169.141 21.715L168.318 21.3034C168.318 19.9889 168.607 18.9272 169.184 18.1184C169.777 17.295 170.665 16.8834 171.849 16.8834C172.369 16.8834 172.839 16.9772 173.258 17.165C173.677 17.3528 174.067 17.6561 174.428 18.075L172.868 19.6784C172.68 19.4761 172.471 19.3317 172.239 19.245C172.008 19.1584 171.741 19.115 171.438 19.115C170.773 19.115 170.224 19.3245 169.791 19.7434C169.358 20.1622 169.141 20.8195 169.141 21.715Z" fill="#262626"/>
<path d="M178.75 27.7167C178.172 27.7167 177.616 27.6445 177.082 27.5C176.547 27.3411 176.056 27.1245 175.608 26.85C175.161 26.5611 174.771 26.2145 174.438 25.81L175.955 24.2934C176.316 24.7122 176.728 25.03 177.19 25.2467C177.667 25.4489 178.201 25.55 178.793 25.55C179.328 25.55 179.732 25.4706 180.007 25.3117C180.281 25.1528 180.418 24.9217 180.418 24.6184C180.418 24.3006 180.288 24.055 180.028 23.8817C179.768 23.7084 179.429 23.5639 179.01 23.4484C178.606 23.3184 178.172 23.1884 177.71 23.0584C177.262 22.9284 176.829 22.755 176.41 22.5384C176.006 22.3072 175.673 21.9967 175.413 21.6067C175.153 21.2167 175.023 20.7111 175.023 20.09C175.023 19.4256 175.175 18.855 175.478 18.3784C175.796 17.9017 176.237 17.5334 176.8 17.2734C177.378 17.0134 178.064 16.8834 178.858 16.8834C179.696 16.8834 180.433 17.035 181.068 17.3384C181.718 17.6272 182.26 18.0678 182.693 18.66L181.177 20.1767C180.873 19.8011 180.527 19.5195 180.137 19.3317C179.747 19.1439 179.299 19.05 178.793 19.05C178.317 19.05 177.948 19.1222 177.688 19.2667C177.428 19.4111 177.298 19.6206 177.298 19.895C177.298 20.1839 177.428 20.4078 177.688 20.5667C177.948 20.7256 178.281 20.8628 178.685 20.9784C179.104 21.0939 179.537 21.2239 179.985 21.3684C180.447 21.4984 180.881 21.6861 181.285 21.9317C181.704 22.1628 182.043 22.4806 182.303 22.885C182.563 23.275 182.693 23.7878 182.693 24.4234C182.693 25.4345 182.339 26.2361 181.632 26.8284C180.924 27.4206 179.963 27.7167 178.75 27.7167Z" fill="#262626"/>
</svg>
