<svg width="88" height="88" viewBox="0 0 88 88" fill="none" xmlns="http://www.w3.org/2000/svg">
<g clip-path="url(#clip0_1_1068)">
<path d="M58.21 14.8952L72.76 0.345215H87.31V14.8952L72.76 29.4452H58.21V14.8952Z" fill="#FFDECC"/>
<path d="M87.3098 0.345215H72.7598V14.8952H87.3098V0.345215Z" fill="#FF8D4D"/>
<path d="M58.21 44.0053L72.76 29.4453H87.31V44.0053L72.76 58.5553H58.21V44.0053Z" fill="#FFDECC"/>
<path d="M87.3098 29.4453H72.7598V43.9953H87.3098V29.4453Z" fill="#FF8D4D"/>
<path d="M29.0996 14.8952L43.6596 0.345215H58.2096V14.8952L43.6596 29.4452H29.0996V14.8952Z" fill="#FFDECC"/>
<path d="M58.2092 0.345215H43.6592V14.8952H58.2092V0.345215Z" fill="#FF8D4D"/>
<path d="M29.0996 44.0053L43.6596 29.4453H58.2096V44.0053L43.6596 58.5553H29.0996V44.0053Z" fill="#FFDECC"/>
<path d="M58.2092 29.4453H43.6592V43.9953H58.2092V29.4453Z" fill="#FF8D4D"/>
<path d="M0 14.8952L14.55 0.345215H29.1V14.8952L14.55 29.4452H0V14.8952Z" fill="#FFDECC"/>
<path d="M29.0998 0.345215H14.5498V14.8952H29.0998V0.345215Z" fill="#FF8D4D"/>
<path d="M0 44.0053L14.55 29.4453H29.1V44.0053L14.55 58.5553H0V44.0053Z" fill="#FFDECC"/>
<path d="M29.0998 29.4453H14.5498V43.9953H29.0998V29.4453Z" fill="#FF8D4D"/>
<path d="M58.21 73.1052L72.76 58.5552H87.31V73.1052L72.76 87.6552H58.21V73.1052Z" fill="#FFDECC"/>
<path d="M87.3098 58.5552H72.7598V73.1052H87.3098V58.5552Z" fill="#FF8D4D"/>
<path d="M29.0996 73.1052L43.6596 58.5552H58.2096V73.1052L43.6596 87.6552H29.0996V73.1052Z" fill="#FFDECC"/>
<path d="M58.2092 58.5552H43.6592V73.1052H58.2092V58.5552Z" fill="#FF8D4D"/>
<path d="M0 73.1052L14.55 58.5552H29.1V73.1052L14.55 87.6552H0V73.1052Z" fill="#FFDECC"/>
<path d="M29.0998 58.5552H14.5498V73.1052H29.0998V58.5552Z" fill="#FF8D4D"/>
</g>
<defs>
<clipPath id="clip0_1_1068">
<rect width="87.31" height="87.31" fill="white" transform="translate(0 0.345215)"/>
</clipPath>
</defs>
</svg>
