<svg width="34" height="34" viewBox="0 0 34 34" fill="none" xmlns="http://www.w3.org/2000/svg">
<path d="M9.56329 19.125C12.4972 19.1251 14.8758 21.5035 14.8758 24.4375C14.8758 28.5451 11.5458 31.8749 7.43829 31.875C4.68062 31.875 2.27521 30.3732 0.991999 28.1484C0.796209 27.8089 0.80258 27.3894 1.00958 27.0566C1.21678 26.7238 1.59102 26.5318 1.98223 26.5576C2.02974 26.5608 2.07774 26.5625 2.12579 26.5625C3.29931 26.5624 4.25079 25.611 4.25079 24.4375C4.25079 21.5035 6.62924 19.125 9.56329 19.125ZM13.9725 13.5459C16.9137 14.7379 19.2605 17.0854 20.4529 20.0264C19.4914 20.747 18.4811 21.4062 17.4246 21.9932L16.7117 22.3887C16.008 19.9286 14.0713 17.9906 11.6111 17.2871L12.0066 16.5752C12.5936 15.5187 13.2518 14.5075 13.9725 13.5459ZM29.1815 2.125C30.669 2.125 31.8756 3.33083 31.8758 4.81836C31.8758 5.35011 31.7176 5.87004 31.4227 6.3125L26.6258 13.5078C25.3362 15.4421 23.8014 17.19 22.0682 18.7148C20.6955 15.7201 18.2789 13.304 15.284 11.9316C16.8089 10.1982 18.5576 8.66365 20.492 7.37402L27.6873 2.57715C28.1296 2.28226 28.6498 2.1251 29.1815 2.125Z" fill="#262626"/>
</svg>
