<svg width="32" height="26" viewBox="0 0 32 26" fill="none" xmlns="http://www.w3.org/2000/svg">
<path d="M5.48235 19.5116L5.85161 20.9106C6.31933 22.7295 7.34095 23.6622 9.37185 23.6622H22.6281C24.6714 23.6622 25.6807 22.7527 26.1607 20.9106L26.53 19.5116H5.48235ZM5.07617 17.9142H26.9484L29.2624 8.93685L28.2532 8.38888L22.579 12.3063C22.1604 12.5862 21.8773 12.4812 21.6434 12.1664L16.3016 4.5181L15.7107 4.49478L10.3196 12.2013C10.1104 12.5045 9.86419 12.5978 9.4457 12.3179L3.88224 8.47049L2.70062 8.76197L5.07617 17.9142ZM3.15604 11.2686C4.78077 11.2686 6.08547 10.0211 6.08547 8.47049C6.08547 6.95483 4.78077 5.69566 3.15604 5.69566C1.53131 5.69566 0.214294 6.94317 0.214294 8.47049C0.214294 10.0211 1.54361 11.2686 3.15604 11.2686ZM16.0062 6.41851C17.6186 6.41851 18.9356 5.17101 18.9356 3.63201C18.9356 2.11634 17.6186 0.857178 16.0062 0.857178C14.3692 0.857178 13.0644 2.10469 13.0644 3.63201C13.0644 5.17101 14.3815 6.41851 16.0062 6.41851ZM28.844 11.2686C30.4564 11.2686 31.7857 10.0211 31.7857 8.47049C31.7857 6.94317 30.4687 5.69566 28.844 5.69566C27.2316 5.69566 25.9146 6.95483 25.9146 8.47049C25.9146 10.0211 27.2316 11.2686 28.844 11.2686Z" fill="#262626"/>
</svg>
