<svg width="24" height="24" viewBox="0 0 24 24" fill="none" xmlns="http://www.w3.org/2000/svg">
<path d="M4.5758 16.5964L4.83646 17.5839C5.16662 18.8678 5.88776 19.5262 7.32134 19.5262H16.6787C18.121 19.5262 18.8335 18.8843 19.1723 17.5839L19.433 16.5964H4.5758ZM4.28909 15.4689H19.7283L21.3617 9.13189L20.6493 8.74509L16.644 11.5103C16.3485 11.7079 16.1487 11.6338 15.9836 11.4116L12.2129 6.01277L11.7959 5.99631L7.99034 11.4362C7.84264 11.6502 7.66887 11.7161 7.37347 11.5185L3.44632 8.80269L2.61223 9.00844L4.28909 15.4689ZM2.9337 10.7778C4.08057 10.7778 5.00153 9.89727 5.00153 8.80269C5.00153 7.73282 4.08057 6.84399 2.9337 6.84399C1.78684 6.84399 0.857178 7.72458 0.857178 8.80269C0.857178 9.89727 1.79552 10.7778 2.9337 10.7778ZM12.0044 7.35424C13.1425 7.35424 14.0722 6.47364 14.0722 5.3873C14.0722 4.31741 13.1425 3.42859 12.0044 3.42859C10.8488 3.42859 9.92787 4.30919 9.92787 5.3873C9.92787 6.47364 10.8575 7.35424 12.0044 7.35424ZM21.0664 10.7778C22.2046 10.7778 23.1429 9.89727 23.1429 8.80269C23.1429 7.72458 22.2132 6.84399 21.0664 6.84399C19.9282 6.84399 18.9986 7.73282 18.9986 8.80269C18.9986 9.89727 19.9282 10.7778 21.0664 10.7778Z" fill="#262626"/>
</svg>
