<svg width="141" height="24" viewBox="0 0 141 24" fill="none" xmlns="http://www.w3.org/2000/svg">
<path d="M10.9413 2.9429C11.714 1.62493 13.6193 1.62493 14.392 2.9429L16.1179 5.88664C16.3999 6.36761 16.8698 6.70904 17.4144 6.8286L20.7473 7.5603C22.2396 7.8879 22.8284 9.69996 21.8137 10.8421L19.5473 13.3931C19.177 13.8099 18.9975 14.3624 19.0521 14.9173L19.3862 18.3132C19.5357 19.8337 17.9943 20.9536 16.5945 20.3415L13.468 18.9744C12.9571 18.751 12.3762 18.751 11.8654 18.9744L8.73889 20.3415C7.33909 20.9536 5.79766 19.8337 5.94722 18.3132L6.28128 14.9173C6.33586 14.3624 6.15635 13.8099 5.78606 13.3931L3.51971 10.8421C2.50502 9.69995 3.0938 7.8879 4.58603 7.5603L7.91901 6.8286C8.46358 6.70904 8.93352 6.36761 9.2155 5.88664L10.9413 2.9429Z" fill="#FF8D4D"/>
<path d="M39.9413 2.9429C40.714 1.62493 42.6193 1.62493 43.392 2.9429L45.1179 5.88664C45.3999 6.36761 45.8698 6.70904 46.4144 6.8286L49.7473 7.5603C51.2396 7.8879 51.8284 9.69996 50.8137 10.8421L48.5473 13.3931C48.177 13.8099 47.9975 14.3624 48.0521 14.9173L48.3862 18.3132C48.5357 19.8337 46.9943 20.9536 45.5945 20.3415L42.468 18.9744C41.9571 18.751 41.3762 18.751 40.8654 18.9744L37.7389 20.3415C36.3391 20.9536 34.7977 19.8337 34.9472 18.3132L35.2813 14.9173C35.3359 14.3624 35.1564 13.8099 34.7861 13.3931L32.5197 10.8421C31.505 9.69995 32.0938 7.8879 33.586 7.5603L36.919 6.8286C37.4636 6.70904 37.9335 6.36761 38.2155 5.88664L39.9413 2.9429Z" fill="#FF8D4D"/>
<path d="M68.9413 2.9429C69.714 1.62493 71.6193 1.62493 72.392 2.9429L74.1179 5.88664C74.3999 6.36761 74.8698 6.70904 75.4144 6.8286L78.7473 7.5603C80.2396 7.8879 80.8284 9.69996 79.8137 10.8421L77.5473 13.3931C77.177 13.8099 76.9975 14.3624 77.0521 14.9173L77.3862 18.3132C77.5357 19.8337 75.9943 20.9536 74.5945 20.3415L71.468 18.9744C70.9571 18.751 70.3762 18.751 69.8654 18.9744L66.7389 20.3415C65.3391 20.9536 63.7977 19.8337 63.9472 18.3132L64.2813 14.9173C64.3359 14.3624 64.1564 13.8099 63.7861 13.3931L61.5197 10.8421C60.505 9.69995 61.0938 7.8879 62.586 7.5603L65.919 6.8286C66.4636 6.70904 66.9335 6.36761 67.2155 5.88664L68.9413 2.9429Z" fill="#FF8D4D"/>
<path d="M97.9413 2.9429C98.714 1.62493 100.619 1.62493 101.392 2.9429L103.118 5.88664C103.4 6.36761 103.87 6.70904 104.414 6.8286L107.747 7.5603C109.24 7.8879 109.828 9.69996 108.814 10.8421L106.547 13.3931C106.177 13.8099 105.998 14.3624 106.052 14.9173L106.386 18.3132C106.536 19.8337 104.994 20.9536 103.594 20.3415L100.468 18.9744C99.9571 18.751 99.3762 18.751 98.8654 18.9744L95.7389 20.3415C94.3391 20.9536 92.7977 19.8337 92.9472 18.3132L93.2813 14.9173C93.3359 14.3624 93.1564 13.8099 92.7861 13.3931L90.5197 10.8421C89.505 9.69995 90.0938 7.8879 91.586 7.5603L94.919 6.8286C95.4636 6.70904 95.9335 6.36761 96.2155 5.88664L97.9413 2.9429Z" fill="#FF8D4D"/>
<path d="M126.941 2.9429C127.714 1.62493 129.619 1.62493 130.392 2.9429L132.118 5.88664C132.4 6.36761 132.87 6.70904 133.414 6.8286L136.747 7.5603C138.24 7.8879 138.828 9.69996 137.814 10.8421L135.547 13.3931C135.177 13.8099 134.998 14.3624 135.052 14.9173L135.386 18.3132C135.536 19.8337 133.994 20.9536 132.594 20.3415L129.468 18.9744C128.957 18.751 128.376 18.751 127.865 18.9744L124.739 20.3415C123.339 20.9536 121.798 19.8337 121.947 18.3132L122.281 14.9173C122.336 14.3624 122.156 13.8099 121.786 13.3931L119.52 10.8421C118.505 9.69995 119.094 7.8879 120.586 7.5603L123.919 6.8286C124.464 6.70904 124.934 6.36761 125.215 5.88664L126.941 2.9429Z" fill="#FF8D4D"/>
</svg>
