<svg width="35" height="34" viewBox="0 0 35 34" fill="none" xmlns="http://www.w3.org/2000/svg">
<path fill-rule="evenodd" clip-rule="evenodd" d="M21.3719 2.25951C21.7986 2.49743 22.0081 2.99572 21.8796 3.4671L19.0581 13.8125H29.3545C29.7776 13.8125 30.1604 14.0635 30.329 14.4516C30.4976 14.8396 30.4199 15.2907 30.1313 15.6L15.2563 31.5375C14.9229 31.8947 14.3889 31.9785 13.9621 31.7406C13.5354 31.5026 13.3259 31.0044 13.4545 30.533L16.2759 20.1875H5.97952C5.55643 20.1875 5.17367 19.9365 5.00505 19.5485C4.83643 19.1605 4.91409 18.7094 5.20277 18.4001L20.0778 2.46257C20.4111 2.10538 20.9451 2.0216 21.3719 2.25951Z" fill="#262626"/>
</svg>
