<svg width="41" height="29" viewBox="0 0 41 29" fill="none" xmlns="http://www.w3.org/2000/svg">
<g opacity="0.9">
<path d="M24.5199 0.728291C24.6126 0.738222 24.702 0.748155 24.7947 0.761397C24.7053 0.748155 24.6126 0.738222 24.5199 0.728291Z" fill="#262626"/>
<path d="M30.2437 2.57559L29.7438 2.30744C29.7305 2.30082 29.714 2.29089 29.7007 2.28427C29.6478 2.25779 29.5948 2.23129 29.5418 2.20481C29.5749 2.22136 29.6114 2.23792 29.6478 2.25448C29.5683 2.21144 29.4889 2.17171 29.4094 2.12868L29.0585 1.96977C29.0883 1.98301 29.1214 1.99957 29.1512 2.01281C28.7208 1.81418 28.2839 1.63541 27.8336 1.47651C25.9102 1.02298 23.9273 0.834274 20.5142 0.777996C26.8405 1.08918 29.0122 1.99295 29.7405 2.30413C29.9093 2.3902 30.0781 2.47959 30.2437 2.57559Z" fill="#262626"/>
<path d="M25.2084 0.576055C24.9601 0.516466 24.7118 0.456878 24.5 0.410531L24.3676 0.384041C23.6393 0.268175 22.1926 0.496605 20.5142 0.784617C20.6598 0.764754 20.8022 0.7482 20.9478 0.731648C23.7253 0.413842 24.5298 0.466812 25.2084 0.579369V0.576055Z" fill="#262626"/>
<path d="M23.1592 0.178778C22.9407 0.148984 22.6693 0.119189 22.4574 0.0960159C22.4574 0.0960159 22.4508 0.0960159 22.4475 0.0960159C22.4078 0.105947 22.4011 0.10926 20.5142 0.781287C22.7057 0.198643 22.9209 0.19533 23.2155 0.188709C23.199 0.188709 23.1791 0.185402 23.1592 0.182092V0.178778Z" fill="#262626"/>
<path d="M21.5074 0.0529587C21.4776 0.0430273 21.4412 0.0297935 21.4114 0.0198621C21.4114 0.0198621 21.4081 0.0198621 21.4048 0.0198621C21.1995 0.00993062 21.0737 0.00661732 21.0605 0.00661732C20.9446 0.00661732 20.799 0 20.6765 0C20.9082 0.00993143 20.9148 0.0165496 21.0208 0.152279C20.9766 0.311182 20.8089 0.520844 20.5176 0.781268C21.4478 0.264833 21.4776 0.165515 21.5107 0.0529587H21.5074Z" fill="#262626"/>
<path d="M2.05496 27.0433C5.68324 35.6108 14.7705 38.8915 17.9817 39.4311C17.9982 39.4311 18.0115 39.4344 18.028 39.4377C18.1968 39.4576 18.4087 39.4808 18.5742 39.4973L18.9119 39.5271C18.9119 39.5271 18.9251 39.5271 18.9285 39.5271C17.0349 39.3517 4.01145 35.5082 1.07837 23.6865C1.11147 23.8619 1.14127 24.0341 1.17437 24.193C1.39286 25.0173 1.72722 26.0965 2.00861 26.9175C2.02517 26.9605 2.04172 27.0003 2.05496 27.0433Z" fill="#262626"/>
<path d="M19.9613 0.152299C20.4115 0.321134 20.4347 0.420446 20.5142 0.781288C20.8419 0.0430515 20.1599 0.0298136 19.5574 0.0198822C19.3456 0.0298136 19.0642 0.0496712 18.8556 0.0662236L18.657 0.0827821C18.9649 0.0629192 19.6071 0.0198802 19.9613 0.152299Z" fill="#262626"/>
<path d="M20.0673 39.5867C20.1435 39.5867 20.2163 39.59 20.2924 39.59H20.3256C20.3256 39.59 20.352 39.59 20.362 39.59C20.448 39.59 20.5308 39.59 20.6169 39.59C20.6897 39.59 20.7625 39.59 20.8254 39.59C20.8287 39.59 20.8321 39.59 20.8354 39.59C19.3324 39.5636 -2.17245 31.4132 1.30355 14.8541C1.30355 14.8541 1.30355 14.8541 1.30355 14.8575C1.18437 15.3242 1.06851 15.9532 0.969191 16.4233C0.873188 17.0258 0.793736 17.8369 0.727527 18.4427C0.373306 33.2968 18.1009 39.398 20.0673 39.5867Z" fill="#262626"/>
<path d="M16.8263 0.344284C16.7866 0.350905 16.7436 0.360839 16.7039 0.36746C19.1238 -0.04635 20.1335 0.549536 20.5175 0.781269C19.8323 0.0264805 18.6405 0.03972 16.8297 0.344284H16.8263Z" fill="#262626"/>
<path d="M3.23683 10.0672C-5.49952 26.9109 18.9715 38.8021 21.898 39.5404C21.9179 39.5404 21.9377 39.5404 21.9576 39.537L22.0867 39.5271C22.1066 39.5271 22.1264 39.5238 22.1496 39.5205C22.2986 39.5072 22.4773 39.4874 22.6296 39.4741C22.6495 39.4741 22.6693 39.4708 22.6859 39.4675C19.2198 36.8324 15.0023 35.3956 11.662 32.5619C10.0266 31.1748 6.1964 27.9272 3.95851 23.5839C-0.520562 14.8939 3.46525 9.35211 5.42174 6.96857C5.35222 7.04802 5.28602 7.12747 5.21981 7.20361L4.88876 7.59756C4.37232 8.30931 3.72016 9.2859 3.25338 10.0374C3.24676 10.0473 3.24345 10.0572 3.23683 10.0672Z" fill="#262626"/>
<path d="M15.9324 0.532952C15.9324 0.532952 15.9556 0.526332 15.9688 0.523021C15.939 0.529642 15.9026 0.536263 15.8761 0.542884C15.6577 0.592541 15.373 0.668681 15.1578 0.728269C14.7142 0.850757 14.1282 1.03283 13.6979 1.19505C13.433 1.29436 13.0821 1.42678 12.8239 1.53603C12.5127 1.66845 12.1055 1.86045 11.7976 2.00281C11.4831 2.14847 11.076 2.36365 10.778 2.5391C10.4271 2.74435 9.99343 3.0125 9.60941 3.26078C5.65339 5.98199 2.53161 10.3485 2.96197 15.2712C3.9816 26.8843 17.1341 34.8494 22.0833 37.8487C23.2265 38.5416 23.8312 39.0228 23.8974 39.292C23.8974 39.292 23.9206 39.2887 23.9305 39.2854C24.202 39.2357 24.543 39.1629 24.8144 39.1066C24.8244 39.1066 24.8343 39.1033 24.8442 39.1C24.9402 39.0669 25.0098 38.9279 25.076 38.8484C24.8508 38.4147 24.4106 38.1036 22.0303 36.5443C15.9059 32.532 9.74183 27.9172 6.14334 21.379C-1.97726 6.61761 13.7707 -1.01966 20.5174 0.777925C19.2098 0.271422 17.6175 0.215143 15.9357 0.529639L15.9324 0.532952Z" fill="#262626"/>
<path d="M22.7786 34.8957C26.5062 37.5309 27.3934 38.1566 26.2149 38.7392C26.2281 38.7359 26.2413 38.7326 26.2513 38.7293C26.4333 38.673 26.6386 38.6035 26.8405 38.5373C26.9796 38.4909 27.1153 38.4413 27.251 38.3916C28.9195 37.617 27.4662 36.5444 23.9902 33.9854C20.1468 31.1549 15.3598 27.6326 11.3012 22.4815C-0.682767 7.27312 12.1089 -0.254903 20.5109 0.781276C10.9635 -1.28777 -9.58133 12.0336 22.7753 34.8957H22.7786Z" fill="#262626"/>
<path d="M24.9701 31.9362C29.3167 35.2698 30.9455 36.5179 28.787 37.7626C28.8036 37.756 28.8202 37.7461 28.8367 37.7395C29.1975 37.5673 29.6478 37.329 29.9954 37.1535C31.6771 36.1703 31.0051 35.0282 30.0285 33.9423C25.94 29.3971 20.5109 26.3845 16.3231 21.9518C2.84615 7.68364 11.8871 0.585972 20.5142 0.7846C11.7215 -0.0165351 -3.97674 9.74275 24.9701 31.9395V31.9362Z" fill="#262626"/>
<path d="M28.3302 29.1785C32.4716 32.4956 33.9481 34.28 31.7367 36.0743C32.1141 35.8094 32.5941 35.432 32.9715 35.144C33.1602 34.9884 33.3588 34.8196 33.5475 34.6508C35.2656 33.0783 34.3023 32.2275 22.7421 22.0445C5.98448 7.28636 13.5357 2.07566 18.998 0.986515C14.0455 1.91014 0.234179 6.6673 28.3302 29.1785Z" fill="#262626"/>
<path d="M20.2923 0.797794C19.8851 0.83421 19.4482 0.897111 18.9946 0.986494C19.5773 0.877248 20.0341 0.820968 20.2923 0.797794Z" fill="#262626"/>
<path d="M20.5142 0.781227C20.5142 0.781227 20.4215 0.787844 20.2924 0.797775C20.3652 0.791155 20.4413 0.784538 20.5142 0.781227Z" fill="#262626"/>
<path d="M27.5589 22.6834C34.4282 28.2119 37.007 30.7411 34.7725 33.4888C34.789 33.4723 34.8022 33.459 34.8155 33.4425C35.1664 33.0651 35.5901 32.5652 35.9212 32.1845C35.9278 32.1746 35.9344 32.1679 35.9411 32.158C37.8975 29.5957 36.0271 26.8977 27.9628 20.6309C6.92141 4.28379 18.0678 1.23154 20.5175 0.784622C18.7332 1.00973 3.77314 3.54225 27.5622 22.6834H27.5589Z" fill="#262626"/>
<path d="M28.9791 18.2606C36.7521 24.0671 38.8906 27.0366 37.4373 30.0061C37.4969 29.9068 37.5532 29.8108 37.6095 29.7148L37.6625 29.6221C37.7022 29.5526 37.7386 29.4897 37.775 29.4268L38.2186 28.5727C38.2716 28.4634 38.3246 28.3542 38.3775 28.2483C40.1122 24.2691 33.5376 19.4821 29.1744 16.3074C14.9559 5.96213 16.6178 2.15839 20.5142 0.787853C17.1872 1.6552 11.3475 5.0981 28.9791 18.2672V18.2606Z" fill="#262626"/>
<path d="M29.3565 13.7517C36.1429 18.532 40.2082 21.7299 39.364 25.719C39.4038 25.5833 39.4468 25.4476 39.4832 25.3152C39.6189 24.8186 39.7547 24.2591 39.8639 23.8122C40.4466 19.8363 36.3416 16.8039 29.5981 12.1924C25.1422 9.14349 16.8495 3.46933 20.5142 0.781227C14.7672 3.47265 25.748 11.2092 29.3565 13.7517Z" fill="#262626"/>
<path d="M29.8564 10.236C37.5036 15.1984 40.1023 17.4496 40.2413 20.866C40.2446 20.7998 40.2513 20.7302 40.2546 20.664L40.2777 19.8298L40.2579 19.022C40.2546 18.9293 40.2513 18.84 40.2446 18.7473C39.95 15.162 35.173 12.2058 29.1314 8.47155C24.8807 5.84634 20.064 2.86691 20.5175 0.784622C18.5279 2.89009 25.3475 7.31288 29.8597 10.2393L29.8564 10.236Z" fill="#262626"/>
<path d="M29.3598 7.0679C36.4045 11.067 39.0561 13.0102 39.9003 15.94C39.7944 15.4335 39.6222 14.7912 39.4799 14.2483C39.4468 14.1358 39.4137 14.0265 39.3806 13.914C38.2351 10.9345 34.3983 8.79598 27.7343 5.29349C23.0235 2.81394 21.4709 1.84397 20.5142 0.784622C21.0637 2.36041 24.543 4.33676 29.3598 7.07122V7.0679Z" fill="#262626"/>
<path d="M38.3743 11.3284C38.3445 11.2688 38.318 11.2092 38.2882 11.1496L37.8877 10.3584L37.6195 9.88504C37.5698 9.79897 37.5202 9.7129 37.4672 9.62682C36.5602 8.21656 34.9182 7.16714 32.5677 5.93564C28.6845 3.90301 24.5199 2.53578 20.5176 0.781227C21.7656 1.57574 24.0598 2.62848 26.9631 3.9626C34.6666 7.5015 37.0402 9.03094 38.3776 11.3284H38.3743Z" fill="#262626"/>
<path d="M35.9708 7.47833C35.9344 7.43198 35.9013 7.39225 35.8615 7.3426C35.8384 7.3128 35.8152 7.28631 35.7887 7.25652C35.7589 7.2201 35.7291 7.18369 35.6993 7.14728C35.408 6.80961 35.0803 6.44214 34.8187 6.14751C33.0973 4.38302 28.2839 2.57882 20.5142 0.781227C32.2995 4.31351 34.5804 5.96875 35.9708 7.47833Z" fill="#262626"/>
<path d="M32.7398 4.26385C32.4517 4.04204 32.1372 3.81031 31.8658 3.61168C31.8095 3.57196 31.7532 3.53555 31.697 3.49582C29.8265 2.31729 26.0691 1.4036 20.5142 0.781227C23.9703 1.29435 30.151 2.45302 32.9847 4.46248C32.902 4.39296 32.8192 4.32674 32.7398 4.26385Z" fill="#262626"/>
<path d="M24.8972 0.777933C25.3574 0.840832 25.8142 0.923594 26.2578 1.02622C27.049 1.15864 27.1484 1.18844 27.7509 1.38376C27.7343 1.37713 27.7144 1.3672 27.6979 1.36389C27.3966 1.24472 26.9861 1.10567 26.6783 0.996425H26.6716C25.9467 0.761381 25.0959 0.731593 24.1093 0.691867C24.1557 0.695178 24.1987 0.701791 24.2451 0.705102C23.7419 0.658755 23.2288 0.632271 22.709 0.632271C21.9112 0.671997 21.8052 0.678625 20.5142 0.78456C22.5667 0.698488 23.4936 0.715037 24.8972 0.781246V0.777933ZM24.5165 0.731591C24.6092 0.741523 24.6986 0.751456 24.7913 0.764698C24.7019 0.751456 24.6092 0.741523 24.5165 0.731591Z" fill="#262626"/>
</g>
</svg>
