<svg width="73" height="45" viewBox="0 0 73 45" fill="none" xmlns="http://www.w3.org/2000/svg">
<g opacity="0.9">
<path d="M24.253 42.8807C24.3378 42.911 24.4286 42.9412 24.5194 42.9776C25.1612 43.1955 25.9605 43.4438 26.572 43.6315C27.2078 43.8131 28.0615 44.0129 28.7033 44.1643C20.3537 42.1238 13.2271 37.5524 7.52948 30.5651L9.13402 32.545C9.33383 32.7691 9.50942 32.9689 9.67895 33.1505C10.2723 33.7681 10.9747 34.4826 11.6892 35.1728C12.1312 35.5785 12.6822 36.0629 13.4451 36.741C13.8386 37.0559 14.2988 37.4071 14.7711 37.7583C18.8218 40.7433 21.5889 41.8453 24.259 42.8867L24.253 42.8807Z" fill="#262626"/>
<path d="M2.76415 22.0522C9.40027 37.7222 26.0208 43.7225 31.8941 44.7095C31.9243 44.7095 31.9485 44.7155 31.9788 44.7216C32.2876 44.7579 32.6751 44.8003 32.9779 44.8306L33.5955 44.8851C33.5955 44.8851 33.6197 44.8851 33.6257 44.8851C30.1624 44.5642 6.34257 37.5345 0.977966 15.9126C1.03851 16.2335 1.09301 16.5483 1.15356 16.839C1.55318 18.3466 2.16472 20.3205 2.67938 21.8221C2.70965 21.9008 2.73993 21.9735 2.76415 22.0522Z" fill="#262626"/>
<path d="M35.7085 44.9942C35.8478 44.9942 35.981 45.0002 36.1202 45.0002H36.1808C36.1808 45.0002 36.2292 45.0002 36.2474 45.0002C36.4048 45.0002 36.5562 45.0002 36.7136 45.0002C36.8468 45.0002 36.98 45.0002 37.0951 45.0002C37.1011 45.0002 37.1072 45.0002 37.1132 45.0002C34.3643 44.9518 -4.968 30.0448 1.3896 -0.241621C1.3896 -0.241621 1.3896 -0.241634 1.3896 -0.235579C1.17162 0.618156 0.959705 1.76858 0.778059 2.62837C0.602468 3.73036 0.457152 5.2138 0.336055 6.32184C-0.311815 33.49 32.1119 44.6491 35.7085 44.9942Z" fill="#262626"/>
<path d="M4.92598 -8.99729C-11.0528 21.8098 33.7047 43.5589 39.0572 44.9091C39.0935 44.9091 39.1299 44.9091 39.1662 44.903L39.4023 44.8849C39.4386 44.8849 39.475 44.8788 39.5174 44.8728C39.7898 44.8485 40.1168 44.8122 40.3953 44.788C40.4316 44.788 40.468 44.782 40.4982 44.7759C34.1588 39.9562 26.4449 37.3284 20.3356 32.1455C17.3445 29.6085 10.339 23.6687 6.24594 15.7247C-1.94628 -0.1693 5.34376 -10.3051 8.92218 -14.6646C8.79503 -14.5193 8.67393 -14.374 8.55284 -14.2347L7.94735 -13.5142C7.00279 -12.2124 5.80999 -10.4262 4.95625 -9.05178C4.94414 -9.03362 4.93809 -9.01545 4.92598 -8.99729Z" fill="#262626"/>
<path d="M28.1462 -26.4353C28.1462 -26.4353 28.1886 -26.4474 28.2128 -26.4535C28.1583 -26.4414 28.0917 -26.4293 28.0432 -26.4172C27.6436 -26.3263 27.1229 -26.1871 26.7293 -26.0781C25.918 -25.8541 24.8463 -25.521 24.0591 -25.2243C23.5748 -25.0427 22.9329 -24.8005 22.4607 -24.6007C21.8915 -24.3585 21.1468 -24.0073 20.5837 -23.747C20.0085 -23.4805 19.2637 -23.087 18.7188 -22.7661C18.077 -22.3907 17.2838 -21.9002 16.5814 -21.4461C9.34585 -16.469 3.63612 -8.48268 4.42326 0.520886C6.28815 21.7613 30.3441 36.3293 39.3961 41.815C41.487 43.0825 42.5931 43.9624 42.7142 44.4549C42.7142 44.4549 42.7565 44.4489 42.7747 44.4428C43.2712 44.352 43.8949 44.2188 44.3913 44.1158C44.4095 44.1158 44.4277 44.1098 44.4458 44.1037C44.6214 44.0432 44.7486 43.7889 44.8697 43.6436C44.458 42.8504 43.6527 42.2812 39.2992 39.4294C28.0977 32.0909 16.8236 23.6504 10.242 11.6921C-4.61059 -15.3065 24.1924 -29.2751 36.5322 -25.9873C34.1405 -26.9137 31.2281 -27.0166 28.1522 -26.4414L28.1462 -26.4353Z" fill="#262626"/>
<path d="M40.6674 36.4141C47.4851 41.2338 49.1078 42.3782 46.9523 43.4438C46.9765 43.4378 47.0007 43.4317 47.0189 43.4257C47.3519 43.3227 47.7273 43.1956 48.0967 43.0745C48.351 42.9897 48.5992 42.8989 48.8475 42.8081C51.8991 41.3912 49.241 39.4295 42.8834 34.7491C35.8537 29.5722 27.0984 23.1298 19.6752 13.7084C-2.2434 -14.1076 21.1526 -27.8763 36.5198 -25.9811C19.0576 -29.7654 -18.5188 -5.40069 40.6613 36.4141H40.6674Z" fill="#262626"/>
<path d="M44.6758 31.001C52.6258 37.0983 55.6048 39.3809 51.657 41.6575C51.6873 41.6454 51.7176 41.6273 51.7478 41.6152C52.4078 41.3003 53.2313 40.8644 53.8671 40.5435C56.9429 38.7452 55.7138 36.6562 53.9276 34.6703C46.4499 26.3569 36.5199 20.847 28.8605 12.7396C4.21119 -13.3568 20.747 -26.3385 36.5259 -25.9752C20.4443 -27.4404 -8.26787 -9.59074 44.6758 31.0071V31.001Z" fill="#262626"/>
<path d="M50.8215 25.9576C58.3961 32.0245 61.0966 35.2881 57.0519 38.5699C57.7422 38.0855 58.6202 37.3952 59.3104 36.8684C59.6555 36.5838 60.0188 36.2751 60.364 35.9663C63.5064 33.0902 61.7445 31.5341 40.6009 12.9094C9.95123 -14.0832 23.7624 -23.6135 33.7529 -25.6056C24.6948 -23.9163 -0.566046 -15.2154 50.8215 25.9576Z" fill="#262626"/>
<path d="M49.4106 14.078C61.9744 24.1896 66.6911 28.8155 62.6041 33.841C62.6344 33.8108 62.6586 33.7866 62.6828 33.7563C63.3246 33.066 64.0996 32.1518 64.7051 31.4555C64.7172 31.4373 64.7294 31.4252 64.7415 31.407C68.3199 26.7205 64.8989 21.7858 50.1493 10.324C11.6646 -19.5749 32.0513 -25.1574 36.5319 -25.9748C33.2683 -25.5631 5.90644 -20.9312 49.4166 14.078H49.4106Z" fill="#262626"/>
<path d="M52.0083 5.98848C66.2251 16.6087 70.1365 22.0399 67.4784 27.4711C67.5874 27.2895 67.6903 27.1139 67.7933 26.9383L67.8902 26.7687C67.9628 26.6416 68.0294 26.5266 68.096 26.4115L68.9074 24.8494C69.0042 24.6496 69.1011 24.4497 69.198 24.256C72.3708 16.978 60.3458 8.22272 52.3655 2.41612C26.3599 -16.5053 29.3994 -23.4623 36.526 -25.969C30.4409 -24.3827 19.7601 -18.0856 52.0083 6.0006V5.98848Z" fill="#262626"/>
<path d="M52.6983 -2.25818C65.1107 6.48503 72.5461 12.334 71.0021 19.6301C71.0748 19.3819 71.1535 19.1336 71.2201 18.8914C71.4683 17.9832 71.7166 16.9599 71.9164 16.1425C72.9821 8.87065 65.474 3.3244 53.1403 -5.11001C44.9905 -10.6865 29.8231 -21.0646 36.5258 -25.9811C26.0145 -21.0585 46.0985 -6.90831 52.6983 -2.25818Z" fill="#262626"/>
<path d="M53.613 -8.68825C67.5997 0.387981 72.3528 4.50529 72.6071 10.7539C72.6132 10.6328 72.6253 10.5056 72.6313 10.3845L72.6737 8.85873L72.6374 7.38134C72.6313 7.21181 72.6253 7.04832 72.6132 6.87878C72.0743 0.321373 63.3371 -5.0856 52.287 -11.9155C44.5126 -16.717 35.7028 -22.1663 36.5323 -25.9748C32.8933 -22.124 45.3663 -14.0347 53.6191 -8.68218L53.613 -8.68825Z" fill="#262626"/>
<path d="M52.7045 -14.4827C65.5892 -7.16848 70.4392 -3.61427 71.9832 1.74427C71.7894 0.817883 71.4746 -0.35677 71.2142 -1.34977C71.1537 -1.55563 71.0931 -1.75543 71.0326 -1.96129C68.9376 -7.41066 61.92 -11.3221 49.7316 -17.7281C41.1155 -22.2632 38.2758 -24.0373 36.5259 -25.9748C37.531 -23.0927 43.8947 -19.478 52.7045 -14.4767V-14.4827Z" fill="#262626"/>
</g>
</svg>
